<?xml version="1.0" encoding="utf-8"?>
<!-- Generator: Adobe Illustrator 27.8.1, SVG Export Plug-In . SVG Version: 6.00 Build 0)  -->
<svg version="1.1" id="레이어_1" xmlns="http://www.w3.org/2000/svg" xmlns:xlink="http://www.w3.org/1999/xlink" x="0px"
	 y="0px" viewBox="0 0 714 635.6" style="enable-background:new 0 0 714 635.6;" xml:space="preserve">
<style type="text/css">
	.st0{fill:none;}
</style>
<g>
	<rect x="-19" y="-51" class="st0" width="733" height="727"/>
	<path d="M321.9,458.6h110.6c-8.4,87.5-74.2,156.1-164.5,156.1h-74.9c-95.2,0-172.9-77.7-172.9-172.9V192.6
		C20.2,96.7,97.9,19,193.1,19H268c91,0,156.1,69.3,164.5,158.2H322.6c-6.3-30.8-21-54.6-55.3-54.6h-73.5
		c-40.6,0-66.5,34.3-66.5,75.6v237.3c0,41.3,25.9,75.6,66.5,75.6h73.5C300.9,511.1,314.9,488.7,321.9,458.6z"/>
</g>
<g>
	<rect x="317" y="266" class="st0" width="380" height="198"/>
	<path d="M427.2,414.8v21.4h-98.8V290.4h32.4v124.4H427.2z"/>
	<path d="M481.8,436c-17.8,0-43.8-10-43.8-39.8v-62.6c0-26.2,21.8-43.4,47.4-43.4h20.4c26.4,0,45.6,17.2,45.6,43.2v63.4
		c0,23.6-22.2,39.2-40,39.2H481.8z M500.6,412c12.8,0,21.2-7,21.2-19.8v-56.6c0-10.2-6.8-18.8-21-18.8h-11.2c-14.4,0-22,9-22,19
		v56.4c0,11,5.4,19.8,20.4,19.8H500.6z"/>
	<path d="M683.2,391c0,28.8-12.2,43.2-37.2,45.4c-9.6,1-18.8,0.6-31,0c-21.6-0.6-44.8-13.8-44.8-44.8v-55.4
		c0-25.6,18.8-45.8,50-45.8h14.2c26.2,0,40.6,13.6,47,32.6l-28.4,8.6c-3.2-7.2-6.8-12.8-18.4-12.8h-12.2c-14.4,0-21.8,9-21.8,19.6
		v50.2c0,15.2,7.2,22.8,20,22.8h13.6c18.6,0,20.6-11.4,20.6-26.8l-0.2-9H631v-17h52.2V391z"/>
</g>
<g>
	<path d="M338.93,208.82c3.83,0,6.67,3.05,6.67,7.26c0,3.97-2.56,6.99-6.32,6.99h-10.47v-4.26h9.26c1.83,0,3.35-0.86,3.35-2.73
		c0-1.75-1.32-2.78-3.02-2.78h-2.73c-4.59,0-7.58-1.94-7.58-6.72c0-3.4,2.38-6.48,5.99-6.48h9.5v4.48h-7.75
		c-1.75,0-3.16,0.3-3.16,2.21c0,1.13,0.81,2.02,2.13,2.02H338.93z"/>
	<path d="M357.32,217.73h4c-0.38,3.27-2.59,5.34-6.13,5.34h-1.38c-3.91,0-6.34-2.48-6.34-6.29v-4.62c0-3.81,2.43-6.26,6.34-6.26
		h1.38c3.62,0,5.83,2.08,6.15,5.43h-4c-0.24-0.97-1.03-1.57-2.16-1.57h-1.38c-1.43,0-2.48,1.05-2.48,2.51v4.4
		c0,1.46,1.05,2.51,2.48,2.51h1.38C356.26,219.19,357.08,218.65,357.32,217.73z"/>
	<path d="M369.98,209.74c-2.38,0-2.83,1.21-2.83,2.83v10.5h-3.78v-22.97h3.78v6.15c0.65-0.22,1.4-0.35,2.24-0.35h2.03
		c3.99,0,6.02,2.94,6.02,5.86v11.31h-3.81v-10.5c0-1.62-0.46-2.83-2.81-2.83H369.98z"/>
	<path d="M387.23,205.91c3.94,0,6.34,2.46,6.34,6.26v4.62c0,3.81-2.4,6.29-6.34,6.29h-1.38c-3.91,0-6.32-2.48-6.32-6.29v-4.62
		c0-3.81,2.4-6.26,6.32-6.26H387.23z M385.86,209.77c-1.4,0-2.48,1.05-2.48,2.51v4.4c0,1.46,1.08,2.51,2.48,2.51h1.38
		c1.43,0,2.48-1.05,2.48-2.51v-4.4c0-1.46-1.05-2.51-2.48-2.51H385.86z"/>
	<path d="M403.3,205.91c3.94,0,6.34,2.46,6.34,6.26v4.62c0,3.81-2.4,6.29-6.34,6.29h-1.38c-3.91,0-6.32-2.48-6.32-6.29v-4.62
		c0-3.81,2.4-6.26,6.32-6.26H403.3z M401.92,209.77c-1.4,0-2.48,1.05-2.48,2.51v4.4c0,1.46,1.08,2.51,2.48,2.51h1.38
		c1.43,0,2.48-1.05,2.48-2.51v-4.4c0-1.46-1.05-2.51-2.48-2.51H401.92z"/>
	<path d="M412.29,200.11h3.97v22.97h-3.97V200.11z"/>
	<path d="M439.77,217.06h4.26c-0.32,3.37-2.86,6.02-6.34,6.02h-2.89c-3.67,0-6.67-3-6.67-6.67v-9.61c0-3.7,3-6.69,6.67-6.69h2.89
		c3.51,0,6.02,2.67,6.34,6.1h-4.24c-0.24-1.19-0.81-2.11-2.13-2.11h-2.83c-1.57,0-2.56,1.32-2.56,2.92v9.15c0,1.59,1,2.92,2.56,2.92
		h2.83C438.96,219.08,439.5,218.22,439.77,217.06z"/>
	<path d="M446.8,200.11h3.97v22.97h-3.97V200.11z"/>
	<path d="M461.37,219.22c2.21,0,2.75-1.11,2.81-2.56v-10.74h3.94v17.17h-3.94v-0.43c-0.76,0.27-1.59,0.43-2.51,0.43h-1.73
		c-4.02,0-6.02-2.97-6.02-5.88v-11.28h3.91v10.5c0,1.59,0.4,2.81,2.78,2.81H461.37z"/>
	<path d="M478.22,205.91c3.91,0,6.34,2.46,6.34,6.26v4.62c0,3.81-2.43,6.29-6.34,6.29h-1.38c-3.91,0-6.32-2.48-6.32-6.29v-4.62
		v-0.27v-11.8h3.97v6.24c0.78-0.27,1.67-0.43,2.65-0.43H478.22z M476.84,209.77c-1.4,0-2.32,1-2.35,2.4v4.51
		c0,1.46,0.92,2.51,2.35,2.51h1.38c1.43,0,2.43-1.05,2.43-2.51v-4.4c0-1.46-1-2.51-2.43-2.51H476.84z"/>
	<path d="M507.54,217.06h4.26c-0.32,3.37-2.86,6.02-6.34,6.02h-2.89c-3.67,0-6.67-3-6.67-6.67v-9.61c0-3.7,3-6.69,6.67-6.69h2.89
		c3.51,0,6.02,2.67,6.34,6.1h-4.24c-0.24-1.19-0.81-2.11-2.13-2.11h-2.83c-1.57,0-2.56,1.32-2.56,2.92v9.15c0,1.59,1,2.92,2.56,2.92
		h2.83C506.73,219.08,507.27,218.22,507.54,217.06z"/>
	<path d="M521.64,205.91c3.94,0,6.34,2.46,6.34,6.26v4.62c0,3.81-2.4,6.29-6.34,6.29h-1.38c-3.91,0-6.32-2.48-6.32-6.29v-4.62
		c0-3.81,2.4-6.26,6.32-6.26H521.64z M520.26,209.77c-1.4,0-2.48,1.05-2.48,2.51v4.4c0,1.46,1.08,2.51,2.48,2.51h1.38
		c1.43,0,2.48-1.05,2.48-2.51v-4.4c0-1.46-1.05-2.51-2.48-2.51H520.26z"/>
	<path d="M547.77,209.74c-2.4,0-2.73,1.21-2.73,2.81v10.53h-3.97v-10.5c0-1.62-0.38-2.83-2.75-2.83h-0.81
		c-2.38,0-2.83,1.21-2.83,2.83v10.5h-3.97v-17.17h3.97v0.51c0.84-0.32,1.78-0.51,2.81-0.51h1.46c1.78,0,3.21,0.59,4.21,1.51
		c1.05-0.92,2.51-1.51,4.32-1.51h1.73c4.02,0,6.1,2.94,6.1,5.86v11.31h-3.94v-10.5c0-1.62-0.38-2.83-2.75-2.83H547.77z"/>
	<path d="M575.34,209.74c-2.4,0-2.73,1.21-2.73,2.81v10.53h-3.97v-10.5c0-1.62-0.38-2.83-2.75-2.83h-0.81
		c-2.38,0-2.83,1.21-2.83,2.83v10.5h-3.97v-17.17h3.97v0.51c0.84-0.32,1.78-0.51,2.81-0.51h1.46c1.78,0,3.21,0.59,4.21,1.51
		c1.05-0.92,2.51-1.51,4.32-1.51h1.73c4.02,0,6.1,2.94,6.1,5.86v11.31h-3.94v-10.5c0-1.62-0.38-2.83-2.75-2.83H575.34z"/>
	<path d="M593.05,219.22c2.21,0,2.75-1.11,2.81-2.56v-10.74h3.94v17.17h-3.94v-0.43c-0.76,0.27-1.59,0.43-2.51,0.43h-1.73
		c-4.02,0-6.02-2.97-6.02-5.88v-11.28h3.91v10.5c0,1.59,0.4,2.81,2.78,2.81H593.05z"/>
	<path d="M609.52,209.74c-2.38,0-2.83,1.21-2.83,2.83v10.5h-3.97v-17.17h3.97v0.43c0.73-0.27,1.59-0.43,2.51-0.43h1.75
		c4,0,6.1,2.94,6.1,5.86v11.31h-3.97v-10.5c0-1.62-0.38-2.83-2.75-2.83H609.52z"/>
	<path d="M623.56,204.05h-3.97v-3.94h3.97V204.05z M623.56,223.08h-3.97v-17.17h3.97V223.08z"/>
	<path d="M625.64,205.91h3.19v-5.8h3.97v5.8h3.18v3.86h-3.18v13.31h-3.97v-13.31h-3.19V205.91z"/>
	<path d="M644.32,228.93h-3.72l1.73-5.91l-5.21-17.11h3.75l3.29,10.96l3.24-10.96h3.75L644.32,228.93z"/>
	<path d="M688.38,223.35h-4.21l-1.49-1.94c-0.86,1.19-1.75,2.19-3.67,2.19h-4.67c-2.21,0-3.72-1.81-3.72-4.4v-4.67
		c0-2.05,2.32-3.24,3.29-4c-0.89-1.08-2.21-2.59-2.32-4.75v-1.67c0-4.16,1.73-5.61,4.86-5.61h2.56c3.24,0,4.7,1.81,4.7,5.61v1.94
		c-0.16,2.32-1.81,3.91-4.48,5.48l3.27,4.29l2.08-3.27l2.54,1.51l-2.7,4.43L688.38,223.35z M674.21,218.35
		c0,1.29,0.62,1.81,1.62,1.81h2.43c1.13,0,1.78-0.84,2.24-1.46l-4.18-5.64c-0.57,0.46-2.11,1.4-2.11,2.05V218.35z M676.91,201.94
		c-1.05,0-1.62,0.67-1.62,2.11v1.73c0,0.92,1.46,2.78,1.86,3.1c1.4-0.89,2.81-1.89,2.86-2.83v-2c0-1.46-0.49-2.11-1.62-2.11H676.91z
		"/>
	<path d="M337.23,259.71h0.22c1.21-5.51,2.48-11.07,3.7-16.57h4.83v22.94h-3.32v-14.93h-0.22c-1.03,4.97-2.27,9.99-3.32,14.93
		l-3.7,0.03l-3.13-14.9h-0.22v14.87h-3.35v-22.94h4.83L337.23,259.71z"/>
	<path d="M348.44,254.33c0.19-2.86,2.11-5.43,6.02-5.43h2.02c4.02,0,6.02,2.94,6.02,5.86v11.31h-9.58c-3.02,0-4.64-2.38-4.64-5.18
		c0-2.83,1.67-4.97,4.56-4.97h5.78v-0.35c0-1.62-0.32-2.83-2.73-2.83h-0.84c-1.83,0-2.43,0.51-2.73,1.59H348.44z M353.05,262.59
		h5.56v-3.43h-5.56c-0.57,0-1.16,0.57-1.16,1.73C351.89,262.03,352.49,262.59,353.05,262.59z"/>
	<path d="M372.22,252.74c-2.38,0-2.83,1.21-2.83,2.83v10.5h-3.97v-17.17h3.97v0.43c0.73-0.27,1.59-0.43,2.51-0.43h1.75
		c4,0,6.1,2.94,6.1,5.86v11.31h-3.97v-10.5c0-1.62-0.38-2.83-2.75-2.83H372.22z"/>
	<path d="M381.84,254.33c0.19-2.86,2.11-5.43,6.02-5.43h2.02c4.02,0,6.02,2.94,6.02,5.86v11.31h-9.58c-3.02,0-4.64-2.38-4.64-5.18
		c0-2.83,1.67-4.97,4.56-4.97h5.78v-0.35c0-1.62-0.32-2.83-2.73-2.83h-0.84c-1.83,0-2.43,0.51-2.73,1.59H381.84z M386.45,262.59
		h5.56v-3.43h-5.56c-0.57,0-1.16,0.57-1.16,1.73C385.29,262.03,385.88,262.59,386.45,262.59z"/>
	<path d="M412.4,248.91v17.19c0,3.64-2.24,5.8-5.48,5.8h-7.72v-3.75h7.1c1.35,0,2.43-0.89,2.43-2.4v-0.22h-5.02
		c-3.02,0-5.48-2.13-5.48-6.07v-4.48c0-3.94,2.46-6.07,5.48-6.07H412.4z M408.7,252.66h-4.16c-1.35,0-2.46,1.24-2.46,2.73v3.64
		c0,1.51,1.11,2.75,2.46,2.75h4.16V252.66z"/>
	<path d="M414.61,255.01c0-3.29,2.78-6.1,5.53-6.1h3.83c3.51,0,5.53,3.27,5.53,5.97v4.35h-10.93v0.92c0,1.62,1.03,2.21,2.48,2.21
		h7.85v3.78h-8.75c-3.05,0-5.56-2.51-5.56-5.88V255.01z M418.64,256.03h6.96v-0.19c0-1.7-1-3.02-2.48-3.02h-2.11
		c-1.43,0-2.38,1.43-2.38,3.02V256.03z"/>
	<path d="M449.33,252.74c-2.4,0-2.73,1.21-2.73,2.81v10.53h-3.97v-10.5c0-1.62-0.38-2.83-2.75-2.83h-0.81
		c-2.38,0-2.83,1.21-2.83,2.83v10.5h-3.97v-17.17h3.97v0.51c0.84-0.32,1.78-0.51,2.81-0.51h1.46c1.78,0,3.21,0.59,4.21,1.51
		c1.05-0.92,2.51-1.51,4.32-1.51h1.73c4.02,0,6.1,2.94,6.1,5.86v11.31h-3.94v-10.5c0-1.62-0.38-2.83-2.75-2.83H449.33z"/>
	<path d="M459.25,255.01c0-3.29,2.78-6.1,5.53-6.1h3.83c3.51,0,5.53,3.27,5.53,5.97v4.35h-10.93v0.92c0,1.62,1.03,2.21,2.48,2.21
		h7.85v3.78h-8.75c-3.05,0-5.56-2.51-5.56-5.88V255.01z M463.27,256.03h6.96v-0.19c0-1.7-1-3.02-2.48-3.02h-2.11
		c-1.43,0-2.38,1.43-2.38,3.02V256.03z"/>
	<path d="M483.7,252.74c-2.38,0-2.83,1.21-2.83,2.83v10.5h-3.97v-17.17h3.97v0.43c0.73-0.27,1.59-0.43,2.51-0.43h1.75
		c4,0,6.1,2.94,6.1,5.86v11.31h-3.97v-10.5c0-1.62-0.38-2.83-2.75-2.83H483.7z"/>
	<path d="M492.89,248.91h3.19v-5.8h3.97v5.8h3.18v3.86h-3.18v13.31h-3.97v-13.31h-3.19V248.91z"/>
	<path d="M532.76,258.17h0.22c1.19-5.05,2.43-9.96,3.67-15.06h4.1l-5.67,22.97h-4.4l-3.78-14.79l-3.64,14.79h-4.4L513,243.11h4.13
		l3.81,15.06h0.22l0.89-3.67c0.92-3.81,1.86-7.56,2.78-11.39h4.13L532.76,258.17z"/>
	<path d="M542.51,255.01c0-3.29,2.78-6.1,5.53-6.1h3.83c3.51,0,5.53,3.27,5.53,5.97v4.35h-10.93v0.92c0,1.62,1.03,2.21,2.48,2.21
		h7.85v3.78h-8.75c-3.05,0-5.56-2.51-5.56-5.88V255.01z M546.53,256.03h6.96v-0.19c0-1.7-1-3.02-2.48-3.02h-2.11
		c-1.43,0-2.38,1.43-2.38,3.02V256.03z"/>
	<path d="M567.35,248.91c3.91,0,6.34,2.46,6.34,6.26v4.62c0,3.81-2.43,6.29-6.34,6.29h-1.38c-3.91,0-6.32-2.48-6.32-6.29v-4.62
		v-0.27v-11.8h3.97v6.24c0.78-0.27,1.67-0.43,2.65-0.43H567.35z M565.97,252.77c-1.4,0-2.32,1-2.35,2.4v4.51
		c0,1.46,0.92,2.51,2.35,2.51h1.38c1.43,0,2.43-1.05,2.43-2.51v-4.4c0-1.46-1-2.51-2.43-2.51H565.97z"/>
	<path d="M595.45,251.82c3.83,0,6.67,3.05,6.67,7.26c0,3.97-2.56,6.99-6.32,6.99h-10.47v-4.26h9.26c1.83,0,3.35-0.86,3.35-2.73
		c0-1.75-1.32-2.78-3.02-2.78h-2.73c-4.59,0-7.58-1.94-7.58-6.72c0-3.4,2.38-6.48,5.99-6.48h9.5v4.48h-7.75
		c-1.75,0-3.16,0.3-3.16,2.21c0,1.13,0.81,2.02,2.13,2.02H595.45z"/>
	<path d="M604.29,255.01c0-3.29,2.78-6.1,5.53-6.1h3.83c3.51,0,5.53,3.27,5.53,5.97v4.35h-10.93v0.92c0,1.62,1.03,2.21,2.48,2.21
		h7.85v3.78h-8.75c-3.05,0-5.56-2.51-5.56-5.88V255.01z M608.31,256.03h6.96v-0.19c0-1.7-1-3.02-2.48-3.02h-2.11
		c-1.43,0-2.38,1.43-2.38,3.02V256.03z"/>
	<path d="M633.15,249.23h0.46v4.18h-0.46c-3.27,0-7.21,2.92-7.21,5.51v7.15h-4.18v-17.3h4.18v3.64
		C627.23,250.31,630.29,249.23,633.15,249.23z"/>
	<path d="M644.05,266.08h-3.78l-5.21-17.17h3.75l3.29,10.88l3.21-10.88h3.78L644.05,266.08z"/>
	<path d="M655.23,247.05h-3.97v-3.94h3.97V247.05z M655.23,266.08h-3.97v-17.17h3.97V266.08z"/>
	<path d="M667.35,260.73h4c-0.38,3.27-2.59,5.34-6.13,5.34h-1.38c-3.91,0-6.34-2.48-6.34-6.29v-4.62c0-3.81,2.43-6.26,6.34-6.26
		h1.38c3.62,0,5.83,2.08,6.15,5.43h-4c-0.24-0.97-1.03-1.57-2.16-1.57h-1.38c-1.43,0-2.48,1.05-2.48,2.51v4.4
		c0,1.46,1.05,2.51,2.48,2.51h1.38C666.3,262.19,667.11,261.65,667.35,260.73z"/>
	<path d="M673.03,255.01c0-3.29,2.78-6.1,5.53-6.1h3.83c3.51,0,5.53,3.27,5.53,5.97v4.35H677v0.92c0,1.62,1.03,2.21,2.48,2.21h7.85
		v3.78h-8.75c-3.05,0-5.56-2.51-5.56-5.88V255.01z M677.05,256.03h6.96v-0.19c0-1.7-1-3.02-2.48-3.02h-2.11
		c-1.43,0-2.38,1.43-2.38,3.02V256.03z"/>
</g>
<g>
</g>
<g>
</g>
<g>
</g>
<g>
</g>
<g>
</g>
<g>
</g>
<g>
</g>
<g>
</g>
<g>
</g>
<g>
</g>
<g>
</g>
<g>
</g>
<g>
</g>
<g>
</g>
<g>
</g>
<g>
</g>
<g>
</g>
</svg>
